# xmcd
#
# Track frame offsets:
# 150
# 13641
# 39009
# 56805
# 72637
# 86243
# 104997
# 119567
# 140362
# 155374
# 177595
# 197500
#
# Disc length: 2792 seconds
#
#
# Revision: 2
# Processed by: cddbd v1.4PL0 Copyright (c) Steve Scherf et al.
# Submitted via: FreeRIP 2.30 
#
DISCID=b00ae60c
DTITLE=Varios - Guitarras Mestizas Delta 2000 CD2
DYEAR=1900
DGENRE=
TTITLE0=I Want To Breack Free
TTITLE1=Hotel California
TTITLE2=Rio Ancho
TTITLE3=My Baby Just Care For Me
TTITLE4=Honky Tonk Women
TTITLE5=Bulevals
TTITLE6=Moonlight Shadow
TTITLE7=Unchain My Heart
TTITLE8=O Pato
TTITLE9=Fever
TTITLE10=Billy Jean
TTITLE11=Tombola
EXTD=
EXTT0=
EXTT1=
EXTT2=
EXTT3=
EXTT4=
EXTT5=
EXTT6=
EXTT7=
EXTT8=
EXTT9=
EXTT10=
EXTT11=
PLAYORDER=
